<mxfile host="app.diagrams.net" agent="Mozilla/5.0 (Windows NT 10.0; Win64; x64) AppleWebKit/537.36 (KHTML, like Gecko) Chrome/129.0.0.0 Safari/537.36" version="24.7.17">
  <diagram name="Page-1" id="fWv5Spo5rW13TEqoJNz8">
    <mxGraphModel grid="1" page="1" gridSize="10" guides="1" tooltips="1" connect="1" arrows="1" fold="1" pageScale="1" pageWidth="850" pageHeight="1100" math="0" shadow="0">
      <root>
        <mxCell id="0" />
        <mxCell id="1" parent="0" />
        <mxCell id="wlXbBH_Zh8hA_fgDTqMH-8" value="E1MySavings" style="swimlane;fontStyle=1;align=center;verticalAlign=top;childLayout=stackLayout;horizontal=1;startSize=26;horizontalStack=0;resizeParent=1;resizeParentMax=0;resizeLast=0;collapsible=1;marginBottom=0;whiteSpace=wrap;html=1;" vertex="1" parent="1">
          <mxGeometry x="40" y="180" width="200" height="230" as="geometry" />
        </mxCell>
        <mxCell id="wlXbBH_Zh8hA_fgDTqMH-9" value="+ totalMoney: double&lt;div&gt;+ pennies: int&lt;br&gt;&lt;/div&gt;&lt;div&gt;+ nickels: int&lt;br&gt;&lt;/div&gt;&lt;div&gt;&lt;div&gt;+ dimes: int&lt;br&gt;&lt;/div&gt;&lt;div&gt;+ quarters: int&lt;/div&gt;&lt;/div&gt;&lt;div&gt;&lt;br&gt;&lt;/div&gt;" style="text;strokeColor=none;fillColor=none;align=left;verticalAlign=top;spacingLeft=4;spacingRight=4;overflow=hidden;rotatable=0;points=[[0,0.5],[1,0.5]];portConstraint=eastwest;whiteSpace=wrap;html=1;" vertex="1" parent="wlXbBH_Zh8hA_fgDTqMH-8">
          <mxGeometry y="26" width="200" height="84" as="geometry" />
        </mxCell>
        <mxCell id="wlXbBH_Zh8hA_fgDTqMH-10" value="" style="line;strokeWidth=1;fillColor=none;align=left;verticalAlign=middle;spacingTop=-1;spacingLeft=3;spacingRight=3;rotatable=0;labelPosition=right;points=[];portConstraint=eastwest;strokeColor=inherit;" vertex="1" parent="wlXbBH_Zh8hA_fgDTqMH-8">
          <mxGeometry y="110" width="200" height="8" as="geometry" />
        </mxCell>
        <mxCell id="wlXbBH_Zh8hA_fgDTqMH-11" value="+ displayTotalMoney(): double&lt;div&gt;+ addPennies(): int&lt;br&gt;&lt;/div&gt;&lt;div&gt;+ addNickels(): int&amp;nbsp;&lt;br&gt;&lt;/div&gt;&lt;div&gt;+ addDimes(): int&lt;br&gt;&lt;/div&gt;&lt;div&gt;+ addQuarters(): int&lt;br&gt;&lt;/div&gt;&lt;div&gt;+ withdrawMoney(): double&lt;/div&gt;" style="text;strokeColor=none;fillColor=none;align=left;verticalAlign=top;spacingLeft=4;spacingRight=4;overflow=hidden;rotatable=0;points=[[0,0.5],[1,0.5]];portConstraint=eastwest;whiteSpace=wrap;html=1;" vertex="1" parent="wlXbBH_Zh8hA_fgDTqMH-8">
          <mxGeometry y="118" width="200" height="112" as="geometry" />
        </mxCell>
        <mxCell id="wlXbBH_Zh8hA_fgDTqMH-12" value="" style="endArrow=open;endFill=1;endSize=12;html=1;rounded=0;" edge="1" parent="1">
          <mxGeometry width="160" relative="1" as="geometry">
            <mxPoint x="260" y="294.5" as="sourcePoint" />
            <mxPoint x="420" y="294.5" as="targetPoint" />
          </mxGeometry>
        </mxCell>
        <mxCell id="wlXbBH_Zh8hA_fgDTqMH-13" value="&lt;b&gt;E1MySavingsTest&lt;/b&gt;" style="swimlane;fontStyle=0;childLayout=stackLayout;horizontal=1;startSize=26;fillColor=none;horizontalStack=0;resizeParent=1;resizeParentMax=0;resizeLast=0;collapsible=1;marginBottom=0;whiteSpace=wrap;html=1;" vertex="1" parent="1">
          <mxGeometry x="425" y="240" width="240" height="110" as="geometry" />
        </mxCell>
        <mxCell id="wlXbBH_Zh8hA_fgDTqMH-14" value="E1MySavings spot = new E1MySavings();" style="text;strokeColor=none;fillColor=none;align=left;verticalAlign=top;spacingLeft=4;spacingRight=4;overflow=hidden;rotatable=0;points=[[0,0.5],[1,0.5]];portConstraint=eastwest;whiteSpace=wrap;html=1;" vertex="1" parent="wlXbBH_Zh8hA_fgDTqMH-13">
          <mxGeometry y="26" width="240" height="84" as="geometry" />
        </mxCell>
      </root>
    </mxGraphModel>
  </diagram>
</mxfile>
